HIERARCHY
ROOT MidHip
{
    OFFSET 0.0 0.0 0.0
    CHANNELS 6 Xposition Yposition Zposition Zrotation Xrotation Yrotation
    JOINT Spine
    {
        OFFSET 0.0 0.0 13.793179754071971
        CHANNELS 3 Zrotation Xrotation Yrotation
        JOINT MidShoulder
        {
            OFFSET 0.0 0.0 13.793179754071971
            CHANNELS 3 Zrotation Xrotation Yrotation
            JOINT Nose
            {
                OFFSET 0.0 0.0 11.76661174609451
                CHANNELS 3 Zrotation Xrotation Yrotation
                End Site
                {
                    OFFSET 0.0 0.0 4.706644698437805
                }
            }
            JOINT RightShoulder
            {
                OFFSET -9.18710738646973 0.0 0.0
                CHANNELS 3 Zrotation Xrotation Yrotation
                JOINT RightElbow
                {
                    OFFSET -14.214874277997698 0.0 0.0
                    CHANNELS 3 Zrotation Xrotation Yrotation
                    JOINT RightWrist
                    {
                        OFFSET -12.455885454398853 0.0 0.0
                        CHANNELS 3 Zrotation Xrotation Yrotation
                        End Site
                        {
                            OFFSET -3.5230564281953227 3.5230564281953227 0.0
                        }
                        End Site
                        {
                            OFFSET -4.98235418175954 0.0 0.0
                        }
                        End Site
                        {
                            OFFSET -3.5230564281953227 -3.5230564281953227 0.0
                        }
                    }
                }
            }
            JOINT LeftShoulder
            {
                OFFSET 9.18710738646973 0.0 0.0
                CHANNELS 3 Zrotation Xrotation Yrotation
                JOINT LeftElbow
                {
                    OFFSET 14.214874277997698 0.0 0.0
                    CHANNELS 3 Zrotation Xrotation Yrotation
                    JOINT LeftWrist
                    {
                        OFFSET 12.455885454398853 0.0 0.0
                        CHANNELS 3 Zrotation Xrotation Yrotation
                        End Site
                        {
                            OFFSET 3.5230564281953227 3.5230564281953227 0.0
                        }
                        End Site
                        {
                            OFFSET 4.98235418175954 0.0 0.0
                        }
                        End Site
                        {
                            OFFSET 3.5230564281953227 -3.5230564281953227 0.0
                        }
                    }
                }
            }
        }
    }
    JOINT RightHip
    {
        OFFSET -5.228159949566038 0.0 0.0
        CHANNELS 3 Zrotation Xrotation Yrotation
        JOINT RightKnee
        {
            OFFSET 0.0 0.0 -19.220720234385468
            CHANNELS 3 Zrotation Xrotation Yrotation
            JOINT RightAnkle
            {
                OFFSET 0.0 0.0 -20.30758457654049
                CHANNELS 3 Zrotation Xrotation Yrotation
                End Site
                {
                    OFFSET 0.0 5.743852305436449 -5.743852305436449
                }
                End Site
                {
                    OFFSET 0.0 -5.743852305436449 -5.743852305436449
                }
            }
        }
    }
    JOINT LeftHip
    {
        OFFSET 5.228159949566038 0.0 0.0
        CHANNELS 3 Zrotation Xrotation Yrotation
        JOINT LeftKnee
        {
            OFFSET 0.0 0.0 -19.220720234385468
            CHANNELS 3 Zrotation Xrotation Yrotation
            JOINT LeftAnkle
            {
                OFFSET 0.0 0.0 -20.30758457654049
                CHANNELS 3 Zrotation Xrotation Yrotation
                End Site
                {
                    OFFSET 0.0 5.743852305436449 -5.743852305436449
                }
                End Site
                {
                    OFFSET 0.0 -5.743852305436449 -5.743852305436449
                }
            }
        }
    }
}
MOTION
Frames: 12
Frame Time: 0.03333333333333333
-20.225875540093707 42.71753878235901 4.30006808480519 -41.8512534990587 -3.9877055564590687 -76.6673311350891 -0.27299978419700277 -4.700555258805605 0.30135569036649923 26.50037566224452 -5.917222605045271e-16 9.562195232507278e-16 -1.5902773407317588e-15 4.4139062980501586e-32 -3.1805546814635176e-15 93.6637734629235 -5.761279468388593 -73.27251972086151 54.82695416473618 -1.1504220982780498e-14 -8.364894572852834e-15 27.541471594147747 -13.647183839429069 7.0144746946792145 39.35531669992776 -10.62680570936375 84.31551003199085 -22.332833883172746 -3.05874866012902e-14 -9.279784462778277e-15 -11.809360707584851 19.06621834396531 -176.0928418956889 -0.2720429898521379 -4.684154575514463 0.9766304011519269 1.770795603847192 22.321645855503892 -7.242946497430046 1.5902773407317584e-15 1.5902773407317584e-15 2.3854160110976376e-15 -11.055853725034632 -73.18628125753145 -11.584733783883294 -0.015638903986512943 18.009720286045205 4.7799584106899085 6.3611093629270335e-15 -3.1805546814635168e-15 1.7655625192200634e-31
-20.273948810649596 42.66915732398363 4.25228095326157 -41.68042957119519 -4.24705465384524 -76.62437375150786 -0.2622507487157075 -4.986974736160199 0.27621228722049096 26.03898522549311 -5.0332368191767245e-15 6.46858655659416e-15 0.0 0.0 2.3854160110976376e-15 92.98591578220923 -2.8205070144286863 -73.23982040013705 57.62501197652497 1.5328522181777797e-15 2.786806803315751e-15 35.11041321886708 -12.932898178239983 8.942558818180032 38.14195150255375 -10.058051513113945 84.3465671032115 -22.980033761359053 2.089285209473091e-14 1.0013095848244443e-15 -11.037169928584037 25.13054724082848 -175.26466921531545 -0.40177751217114405 -7.614393686046386 0.5438151300748089 1.7480760413481768 26.03590991242196 -4.97912738358628 -3.1805546814635176e-15 -1.5902773407317584e-15 -7.951386703658793e-15 -10.02953698322495 -73.2381945964796 -10.933219848320432 -0.1503580716953863 17.801102894457724 5.342784987865974 0.0 0.0 0.0
-20.40259081218312 42.771274243968364 4.154878444362275 -41.79279254947281 -4.189281814803383 -76.48209573755709 -0.26982400285636116 -4.8254095810750774 0.4247210543615607 26.546895218812008 6.290436673611866e-15 1.2812943474368762e-14 -3.1805546814635168e-15 2.2069531490250793e-32 -7.951386703658792e-16 92.73146634827458 -2.7086032044166073 -73.2155741391558 56.4130175164967 -7.109018091275499e-15 2.0372085513057717e-16 27.39799401241125 -26.624827980741824 13.076620328599665 37.14588641288852 -10.554213841540887 84.9222535884831 -21.935722556517245 5.034663575883673e-15 7.455171851265815e-15 -11.519380048103212 46.00249779149184 -171.65923575354714 -0.32375316615974403 -5.783845782318526 0.48968943036960727 1.4542169830659721 21.43260851915753 -4.362232309756219 0.0 0.0 -1.1927080055488188e-15 -10.30064017775068 -72.6734997919218 -11.707150909726387 -0.29097036259226955 17.405276703300764 5.676217095652997 0.0 0.0 0.0
-20.553695464103267 42.89479249355664 3.9397053089798697 -41.93324721532158 -3.8690278565607112 -76.14250959884566 -0.29137266561890013 -4.798559478911621 0.5863232369292084 27.289114936452705 1.3680309160183324e-14 1.59075477121865e-14 3.1805546814635168e-15 -2.2069531490250793e-31 -7.951386703658792e-15 89.98610252401211 -2.031444470497025 -72.28459581387649 61.8972001876424 5.484907105576589e-16 -1.1454528493288818e-14 23.689760573330712 -17.93543237211357 7.694794232013267 32.36732252979546 -11.009863148665335 84.24821048685736 -20.106055286017355 2.773003289223105e-14 -1.544277187382485e-15 -12.051898240146734 41.44134427906825 -171.9569061632802 -0.5935253226259906 -9.703585780418651 -0.16431979003589645 1.6518325713159918 26.199659982584205 -3.170259825959481 0.0 0.0 2.782985346280577e-15 -10.397694996651907 -71.4455027469407 -12.3083287573848 -0.3733125835358738 15.411386799740445 5.114990724363333 0.0 0.0 0.0
-20.590736311784212 43.16154063774869 3.7907543214117996 -41.16588704596354 -6.228564350981259 -75.79889755944008 -0.2641995337364198 -4.710261535137869 1.0178533751710679 25.35202816214371 7.569237772033589e-16 -7.50527560156946e-15 3.1805546814635168e-15 6.620859447075238e-32 2.3854160110976376e-15 97.75094177615469 -1.2454067329503153 -71.34557289378853 54.24089703029186 -4.349687681790341e-15 -8.4925596734375e-15 32.66376911433022 -34.96421134764434 20.17279947148219 30.784331533688913 -11.415217700491603 85.17012457574253 -17.78905231242427 -1.8362079591879893e-14 -6.092895213878966e-15 -15.713076666433977 50.46625911340562 -167.75781259923508 -0.5898996026742774 -10.424033966421387 -0.5307003181116129 1.2538777748895722 24.680884201292677 -2.408262139187832 -3.1805546814635168e-15 -1.8759101766713175e-31 6.7586786981099735e-15 -9.267098691342676 -70.83664646280505 -8.282213276515703 0.3651630269446285 13.520324820217262 2.8310057696270907 0.0 -3.1805546814635164e-15 0.0
-20.67111170308504 43.306419291034004 3.468212517841973 -40.9273367057102 -7.619884352314407 -75.42480781021361 -0.22432415967457284 -4.579089404611916 1.2655652219144633 25.0801876693822 1.0093821217823966e-14 1.6082685488197513e-14 0.0 0.0 -1.5902773407317584e-15 95.28789947928874 -1.9050928898091446 -68.42808364097895 51.336963265634246 8.488765447451083e-15 2.9779667278860886e-15 36.844733726930805 -21.291596473555934 15.220958920838964 26.46363064506631 -11.096617997559738 84.86164703091622 -20.075945473449906 -8.841231270186557e-15 -4.7949880547161235e-15 -11.805325012231725 43.88916117849946 -171.7553392120799 -0.5070047678324149 -10.260279735378141 -0.45230458631976755 0.9892506072846775 22.456826580777726 -2.3916243575664593 0.0 0.0 1.5902773407317584e-15 -7.893966826143591 -70.40752282042506 -6.220859825078817 0.48660383611420566 12.737846483445034 1.8874760125732428 1.7655625192200634e-31 -3.180554681463516e-15 6.361109362927032e-15
-20.58898095276002 43.333265382598626 3.471928371408685 -41.58499807847929 -5.936953501502942 -75.71383602404943 -0.1795961063807918 -4.401237886608826 1.2492928321714 26.559083659704793 1.006513523527783e-14 4.568861626084954e-15 -1.5902773407317584e-15 0.0 0.0 75.82515140370292 -8.20196574727444 -74.07126930948807 53.28574772502472 -1.2797609896157564e-14 2.8621597327929486e-15 25.3996358639718 9.779881384905291 -4.61125412228096 22.021806012991664 -11.158086808216169 84.41333759344442 -19.752711025131372 -5.175765209599766e-15 -7.35791268970573e-15 -9.582011091235955 50.54704119891444 -172.57339862812893 -0.45387229563603093 -11.007125322641683 -0.03685511392042054 0.880248414994521 20.61198125873545 -2.5663060203824704 1.2138242319637935e-31 1.5902773407317588e-15 -8.746525374024672e-15 -6.152138910121629 -69.19260796497336 -6.022665862473804 0.11182044708149766 11.389579672301979 1.771908315465482 0.0 0.0 0.0
-20.95660611422415 42.80055265102447 3.665714729989796 -43.42369475698787 -3.9745793087851844 -76.00818607697433 -0.1678600900598715 -4.702442871215463 0.8566797128803596 28.742324901494158 -4.799735608978049e-15 3.69225911609123e-15 -1.5902773407317588e-15 -1.1034765745125397e-32 7.951386703658794e-16 69.75010808920949 -9.717952891126695 -75.05716076703273 49.739044228006556 -5.350370576375511e-15 -1.1542460049916876e-14 19.40516570300753 20.01294456304218 -6.874048386609344 16.163151731794763 -9.239895232461906 82.66705073438169 -18.751421872956364 -2.98116330790671e-14 -4.922300533253886e-15 -9.211039491737571 46.659123453276045 -173.27372165608668 -0.42999253268730403 -11.898799907887469 -0.09061760179608815 0.7845561934356983 21.46924174623658 -2.466026382659385 3.1805546814635168e-15 4.4139062980501586e-32 1.5902773407317584e-15 -4.731791903635139 -66.64748458014866 -7.755403670952838 -0.5197739251028172 11.282212465237729 3.8505387393091284 0.0 0.0 0.0
-21.2486988098452 42.59315353659248 3.6138940818580796 -44.770320459059924 -2.480277033804788 -76.30096067642272 -0.14374604405832184 -4.6144161504243515 0.9071042921751828 30.480187961704104 8.47218513060802e-15 3.872696049165116e-15 1.590277340731758e-15 6.361109362927033e-15 2.385416011097637e-15 73.5663836189438 -10.844086872218968 -67.76887774199456 39.748403101094326 -1.412699798496339e-14 -1.6572536222408063e-15 16.768545981370274 30.284831344025797 -8.640272356534206 9.09509665422176 -7.447757243583681 80.96266985774851 -20.410782769760427 -4.131830155051404e-15 -3.97551831030763e-15 -13.686774635320242 13.433231764343155 -176.7619560083699 -0.37317974091995604 -11.834192907585482 -1.1827504297384106 0.15044484404197608 13.30117926463285 1.0536961907553226 0.0 0.0 4.770832022195275e-15 -3.7230320248829885 -64.41923336925052 -9.4413092086817 -1.5231348200984711 15.94550939579713 3.108980308237921 0.0 0.0 0.0
-21.102960322941637 42.56782047410107 3.500622992462861 -45.19433221362756 -2.5406040117484188 -76.4259009044262 -0.09050752430198906 -4.197052333665316 1.0686341914270228 31.788453528130706 1.2119200606154213e-14 4.816535844640736e-15 0.0 0.0 -1.5902773407317584e-15 66.32827408268165 -14.535968467586658 -65.09108376715967 38.375799916120606 -2.1940204103880218e-14 1.4370475059686894e-14 20.6477099346765 34.209287822977366 -11.96170606968026 4.304700101842621 -6.408861517596814 80.73670876697395 -23.466556131511656 2.2038331744026244e-15 -2.790704112160015e-15 -10.509269448821215 17.367828604418452 -176.830507548886 -0.2670576949459176 -12.217655819600848 -1.1844084222695377 0.020553569580779255 14.88467242158988 0.14126065603649116 6.3611093629270335e-15 0.0 0.0 -2.5377165559484385 -64.07259148658173 -8.245472990353505 -1.256972547090772 13.008459502483712 4.134279069191828 0.0 0.0 0.0
-21.116681370637153 42.54172522780148 3.303575823811253 -45.75389370739116 -2.7492745161571848 -76.52359632959956 -0.04844284976019567 -3.9428204671650566 1.309360492739789 32.181748597743656 1.9349472033830898e-14 6.831796133965591e-15 -1.5902773407317584e-15 0.0 0.0 52.77499000422427 -20.961560891560023 -66.91239988932226 37.51121962058063 2.045301343946219e-15 6.023325886880914e-15 18.238011465601062 32.146822670253194 -9.944799280623853 -0.708781255962931 -5.37294295466082 79.17259173637399 -23.825383388055343 -1.7989898587698425e-15 -6.880645020413473e-15 -7.535888702077269 21.710161912508127 -177.19843624204057 -0.15077983067697745 -12.108023532083905 -1.6887333366405006 -0.20769948201536334 12.085514248852258 0.9370027068237143 -1.3241718894150476e-31 3.1805546814635168e-15 4.770832022195275e-15 -1.3667514814070092 -62.78355901899278 -7.607410876919306 -1.1084442898918787 10.309260982866988 5.435909894166089 -6.361109362927035e-15 3.1805546814635176e-15 1.7655625192200634e-31
-21.01208381019178 42.49520987894345 3.1542723285792786 -46.43108181130025 -2.301148908767512 -76.70530657129537 -0.08953787343327015 -3.8808943148395847 1.578853839452523 32.60251264354205 -1.0327938852597931e-14 -9.820516665327595e-15 0.0 0.0 -7.951386703658792e-16 38.12890687011368 -26.91774207103515 -71.9395848486297 41.046468990227496 -5.957370366691133e-15 2.230123458732349e-15 18.733640108066048 38.99668031873508 -12.046767632108446 -3.4651123114616182 -6.283737110304525 79.14258053132673 -22.102452867925162 -6.243150188433946e-15 -1.2193391865166848e-15 -9.028363169626271 3.886335764024386 -179.38298986394142 -0.27554360411192036 -11.791949609298623 -1.2830386107028173 0.013505036874562375 11.727281364875454 0.8467724231576936 0.0 0.0 -6.361109362927032e-15 -2.55051056883895 -62.630976727019686 -7.8333737691132 -0.9268115639807569 10.55380773506759 3.729758047541372 0.0 0.0 0.0
